<svg width="12" height="13" viewBox="0 0 12 13" fill="none" xmlns="http://www.w3.org/2000/svg">
<g clip-path="url(#clip0_2267_16474)">
<path fill-rule="evenodd" clip-rule="evenodd" d="M9.88805 4.02492C10.2786 3.6344 10.2786 3.00123 9.88805 2.61071C9.49753 2.22018 8.86436 2.22018 8.47384 2.61071L5.99845 5.0861L3.52461 2.61226C3.13408 2.22174 2.50092 2.22174 2.11039 2.61226C1.71987 3.00279 1.71987 3.63595 2.11039 4.02647L4.58423 6.50031L2.10988 8.97467C1.71935 9.36519 1.71935 9.99836 2.10988 10.3889C2.5004 10.7794 3.13357 10.7794 3.52409 10.3889L5.99845 7.91453L8.47436 10.3904C8.86488 10.781 9.49805 10.781 9.88857 10.3904C10.2791 9.99991 10.2791 9.36675 9.88857 8.97622L7.41266 6.50031L9.88805 4.02492Z" fill="#A1A1AA"/>
</g>
<defs>
<clipPath id="clip0_2267_16474">
<rect width="12" height="12" fill="white" transform="translate(0 0.5)"/>
</clipPath>
</defs>
</svg>
