<?xml version="1.0" standalone="no"?>
<!DOCTYPE svg PUBLIC "-//W3C//DTD SVG 20010904//EN"
 "http://www.w3.org/TR/2001/REC-SVG-20010904/DTD/svg10.dtd">
<svg version="1.0" xmlns="http://www.w3.org/2000/svg"
 width="700.000000pt" height="700.000000pt" viewBox="0 0 700.000000 700.000000"
 preserveAspectRatio="xMidYMid meet">
<metadata>
Created by potrace 1.14, written by Peter Selinger 2001-2017
</metadata>
<g transform="translate(0.000000,700.000000) scale(0.100000,-0.100000)"
fill="#000000" stroke="none">
<path d="M3300 5775 l0 -454 -37 -6 c-364 -59 -645 -179 -902 -385 -663 -531
-877 -1445 -517 -2205 94 -198 190 -337 341 -494 289 -300 630 -473 1078 -546
l37 -6 0 -454 0 -455 210 0 210 0 2 458 3 457 25 3 c247 28 592 164 809 320
358 256 614 635 720 1067 36 145 45 237 45 425 0 307 -49 527 -179 795 -253
522 -727 889 -1287 996 -62 12 -119 23 -125 25 -10 3 -13 103 -13 459 l0 455
-210 0 -210 0 0 -455z m0 -2276 l0 -1401 -32 7 c-308 61 -533 175 -740 374
-130 124 -215 238 -288 386 -115 231 -145 365 -145 635 0 270 30 404 145 635
185 374 540 651 955 745 44 10 86 19 93 19 9 1 12 -285 12 -1400z m590 1360
c237 -67 449 -196 632 -387 186 -194 304 -418 364 -693 27 -120 27 -438 0
-558 -40 -185 -113 -359 -213 -509 -69 -104 -220 -263 -325 -342 -167 -126
-382 -222 -580 -259 l-48 -8 0 1397 0 1397 47 -8 c26 -5 82 -19 123 -30z"/>
</g>
</svg>
